<svg width="31" height="29" viewBox="0 0 31 29" fill="none" xmlns="http://www.w3.org/2000/svg">
<path d="M11 7V10C11 10.2652 11.1054 10.5196 11.2929 10.7071C11.4804 10.8946 11.7348 11 12 11H17" stroke="black" stroke-width="2" stroke-linecap="round" stroke-linejoin="round"/>
<path d="M19 23V17C19 16.7348 18.8946 16.4804 18.7071 16.2929C18.5196 16.1054 18.2652 16 18 16H12C11.7348 16 11.4804 16.1054 11.2929 16.2929C11.1054 16.4804 11 16.7348 11 17V23" stroke="black" stroke-width="2" stroke-linecap="round" stroke-linejoin="round"/>
<path d="M4 19V5.875C4 5.37772 4.21071 4.90081 4.58579 4.54917C4.96086 4.19754 5.46957 4 6 4H17.5" stroke="black" stroke-width="2" stroke-linecap="round" stroke-linejoin="round"/>
<path d="M9 23C8.46957 23 7.96086 22.7893 7.58579 22.4142C7.21071 22.0391 7 21.5304 7 21V9C7 8.46957 7.21071 7.96086 7.58579 7.58579C7.96086 7.21071 8.46957 7 9 7H18.172C18.7024 7.00011 19.211 7.2109 19.586 7.586L22.414 10.414C22.7891 10.789 22.9999 11.2976 23 11.828V21C23 21.2635 22.9479 21.5244 22.8468 21.7677C22.7457 22.011 22.5975 22.2319 22.4107 22.4178C22.2239 22.6036 22.0022 22.7507 21.7584 22.8506C21.5146 22.9506 21.2535 23.0013 20.99 23H9Z" stroke="black" stroke-width="2" stroke-linecap="round" stroke-linejoin="round"/>
<path d="M27.5 10L29.5 12L27.5 14" stroke="#F2B719" stroke-width="2" stroke-linecap="round" stroke-linejoin="round"/>
<path d="M17 12H29.5" stroke="#F2B719" stroke-width="2" stroke-linecap="round" stroke-linejoin="round"/>
<path d="M27.5 17L29.5 19L27.5 21" stroke="#F2B719" stroke-width="2" stroke-linecap="round" stroke-linejoin="round"/>
<path d="M17 19H29.5" stroke="#F2B719" stroke-width="2" stroke-linecap="round" stroke-linejoin="round"/>
<path d="M1 16V2.875C1 2.37772 1.21071 1.90081 1.58579 1.54917C1.96086 1.19754 2.46957 1 3 1H14.5" stroke="black" stroke-width="2" stroke-linecap="round" stroke-linejoin="round"/>
</svg>
